<?xml version="1.0" encoding="UTF-8"?>
<svg id="uuid-e2bc166f-0d7f-436b-9419-53f195d8c924" data-name="Icons" xmlns="http://www.w3.org/2000/svg" viewBox="0 0 800 800">
  <g id="uuid-b5e6b521-0970-411c-851f-61689c4d06a5" data-name="Icon--light bulb">
    <path d="M400.43,99.81c-115.75,0-209.59,93.84-209.59,209.59-.33,30.46,6.18,60.61,19.05,88.22,6.38,11.75,13.51,23.08,21.34,33.92,15.26,20.46,28.05,42.65,38.11,66.12,6.92,24.84,10.69,50.44,11.24,76.21h38.11c-.59-30.25-5.13-60.29-13.53-89.36-11-26.53-25.2-51.61-42.3-74.69-6.92-9.4-13.28-19.2-19.05-29.34-10.24-22.41-15.32-46.82-14.86-71.45,0-95.08,77.07-172.15,172.15-172.15s172.15,77.07,172.15,172.15c.04,24.87-5.57,49.43-16.39,71.83-5.78,10.14-12.14,19.94-19.05,29.34-17,22.97-31.14,47.92-42.11,74.31-8.43,29.19-12.98,59.36-13.53,89.74h38.11c.55-25.77,4.32-51.38,11.24-76.21,10.05-23.46,22.84-45.66,38.11-66.12,7.86-11.08,14.99-22.66,21.34-34.68,12.87-27.61,19.39-57.76,19.05-88.22-.21-115.6-93.99-209.21-209.59-209.21Z" fill="#51247a"/>
    <path d="M412.44,352.46c-5.95-5.94-15.58-5.94-21.53,0l-57.16,57.16,54.49,59.64v105.56h31.25v-117.75l-42.68-46.68,36.01-36.01c5.95-5.96,5.94-15.61-.01-21.56-.12-.12-.24-.24-.37-.35Z" fill="#00a2c7"/>
    <path d="M512.09,612.35h-223.88c-8.42,0-15.24,6.82-15.24,15.24s6.82,15.24,15.24,15.24h223.88c8.42,0,15.24-6.82,15.24-15.24s-6.82-15.24-15.24-15.24Z" fill="#51247a"/>
    <path d="M476.65,669.51h-152.43c-8.42-.01-15.25,6.8-15.26,15.22-.01,8.42,6.8,15.25,15.22,15.26h152.47c8.42.01,15.25-6.8,15.26-15.22s-6.8-15.25-15.22-15.26h-.04Z" fill="#51247a"/>
    <path d="M387.48,264.43l-52.02,52.02c-5.65,6.24-5.18,15.88,1.06,21.53,5.81,5.26,14.66,5.26,20.47,0l52.02-52.4c6.24-5.65,6.71-15.29,1.06-21.53-5.65-6.24-15.29-6.71-21.53-1.06-.37.34-.72.69-1.06,1.06v.38Z" fill="#00a2c7"/>
  </g>
</svg>