<?xml version="1.0" encoding="UTF-8"?>
<svg id="uuid-ff1a363e-fbeb-4dfa-82bf-544238e68bf2" data-name="Icons" xmlns="http://www.w3.org/2000/svg" xmlns:xlink="http://www.w3.org/1999/xlink" viewBox="0 0 800 800">
  <defs>
    <linearGradient id="uuid-fcd2fbbf-6ba0-4ed2-8f12-79afe1e09d2d" x1="-1035.7" y1="631.46" x2="-1460.67" y2="206.49" gradientTransform="translate(-849 803) rotate(-180)" gradientUnits="userSpaceOnUse">
      <stop offset="0" stop-color="#51247a"/>
      <stop offset=".2" stop-color="#4e2276"/>
      <stop offset=".37" stop-color="#481e6c"/>
      <stop offset=".53" stop-color="#3e165b"/>
      <stop offset=".68" stop-color="#2f0b43"/>
      <stop offset=".8" stop-color="#1f0029"/>
    </linearGradient>
  </defs>
  <g id="uuid-2030e442-b858-4797-b812-a967dc3ba5ee" data-name="Icon--Learn.UQ // Discussion">
    <circle cx="399.19" cy="384.03" r="300.5" fill="url(#uuid-fcd2fbbf-6ba0-4ed2-8f12-79afe1e09d2d)"/>
    <path d="M566.18,349.67c-6.8,3.52-14.03,6.08-21.5,7.63,3.78,11.76,5.73,24.04,5.8,36.4-.52,35.86-15.84,69.86-42.21,93.72-2.31,2.18-3.63,5.23-3.64,8.44v61.71l-49.83-32.24c-2.81-1.81-6.26-2.27-9.44-1.27-17.54,5.53-35.79,8.34-54.16,8.32-87.83,0-159.28-62.17-159.28-138.67s71.45-138.67,159.28-138.67c17.53,0,34.96,2.57,51.77,7.63.71-7.67,2.43-15.21,5.12-22.42-18.48-5.48-37.63-8.28-56.89-8.32-100.35,0-182.04,72.57-182.04,161.78s81.69,161.78,182.04,161.78c18.77-.02,37.46-2.67,55.52-7.86l62.92,40.68c5.29,3.45,12.33,1.89,15.72-3.49,1.17-1.86,1.8-4.02,1.8-6.22v-77.77c28.76-28.02,45.17-66.64,45.51-107.12.12-14.93-2.06-29.79-6.49-44.03Z" fill="#fff"/>
    <path d="M311.56,382.14c-6.28,0-11.38,5.17-11.38,11.56s5.09,11.56,11.38,11.56h159.28c6.28,0,11.38-5.17,11.38-11.56s-5.09-11.56-11.38-11.56h-159.28Z" fill="#fff"/>
    <path d="M348.53,439.92c-6.28,0-11.38,5.17-11.38,11.56s5.09,11.56,11.38,11.56h85.33c6.28,0,11.38-5.17,11.38-11.56s-5.09-11.56-11.38-11.56h-85.33Z" fill="#fff"/>
    <path d="M303.36,335.92c0,6.38,5.09,11.56,11.38,11.56h152.91c3.85-.07,7.4-2.11,9.44-5.43-6.69-4.99-12.63-10.95-17.63-17.68h-144.72c-6.28,0-11.38,5.17-11.38,11.56Z" fill="#fff"/>
    <circle cx="528.01" cy="272.13" r="61.99" fill="#fff"/>
  </g>
</svg>