<?xml version="1.0" encoding="UTF-8"?>
<svg id="uuid-35f45e6b-88d1-49da-8c36-acbd615b5592" data-name="Icons" xmlns="http://www.w3.org/2000/svg" viewBox="0 0 800 800">
  <g id="uuid-73dd46a4-95e9-4111-8924-48076de719bb" data-name="Icon--link">
    <path d="M381.26,559.13l-61.52,61.44c-38.96,38.72-101.59,38.72-140.54,0-38.33-38.5-38.4-100.99-.16-139.58.05-.05.1-.11.16-.16l117.29-117.08c38.96-38.72,101.59-38.72,140.54,0,11.91,11.92,20.53,26.76,25.01,43.06,2.46-2.04,4.72-4.32,6.75-6.8l32.26-32.23c-7.22-15.14-16.95-28.93-28.76-40.79-58.46-58.24-152.6-58.24-211.06,0l-117.54,118.09c-57.94,57.89-58.3,152.11-.8,210.44.27.27.53.54.8.81,58.46,58.24,152.6,58.24,211.06,0l91.28-91.15h-12.5c-17.61.31-35.18-1.72-52.27-6.04Z" fill="#51247a"/>
    <path d="M656.59,143.68c-58.46-58.24-152.6-58.24-211.06,0l-91.28,91.15h12.25c17.74,0,35.4,2.37,52.52,7.05l61.52-61.44c38.96-38.72,101.59-38.72,140.54,0,38.33,38.5,38.4,100.99.16,139.58-.05.05-.1.11-.16.16l-117.29,117.08c-38.96,38.72-101.59,38.72-140.54,0-11.91-11.92-20.53-26.76-25.01-43.06-2.5,1.71-4.85,3.65-7,5.79l-32.26,32.23c7.22,15.14,16.95,28.93,28.76,40.79,58.46,58.24,152.6,58.24,211.06,0l117.29-117.08c57.94-58.09,58.14-152.46.45-210.8-.15-.15-.3-.3-.45-.45l.5-1.01Z" fill="#51247a"/>
  </g>
</svg>