<?xml version="1.0" encoding="UTF-8"?>
<svg id="uuid-ed7ad6ee-a4b6-43a0-ae6f-3a5c00e16776" data-name="Icons" xmlns="http://www.w3.org/2000/svg" viewBox="0 0 800 800">
  <g id="uuid-0db026a7-23b4-46da-9f81-717f1899fcd2" data-name="Icon--computer">
    <polygon points="252.03 513.15 252.03 260.99 513.67 260.99 541.6 228.14 223.75 228.14 223.75 513.15 252.03 513.15" fill="#00a2c7"/>
    <path d="M188.39,187.07h424.28v328.55h35.36V176.8c0-17.01-11.87-30.8-26.52-30.8H179.55c-14.65,0-26.52,13.79-26.52,30.8v338.81h35.36V187.07Z" fill="#51247a"/>
    <path d="M100,561.79v78.51c0,33.16,20.58,60.03,45.96,60.03h508.07c25.38,0,45.96-26.88,45.96-60.03v-78.51H100ZM665.7,640.3c0,7.65-4.75,13.85-10.61,13.85H145.26c-5.86,0-10.61-6.2-10.61-13.85h0v-43.18h175.9c4.52,13.92,14.94,23,26.52,23.09h126.05c11.58-.09,22-9.17,26.52-23.09h176.08v43.18Z" fill="#51247a"/>
  </g>
</svg>