<?xml version="1.0" encoding="UTF-8"?>
<svg id="uuid-4564f906-585c-4611-8bc7-6958986ca208" data-name="Icons" xmlns="http://www.w3.org/2000/svg" xmlns:xlink="http://www.w3.org/1999/xlink" viewBox="0 0 800 800">
  <defs>
    <linearGradient id="uuid-b502bd70-d8db-4700-856c-ae28aa128a36" x1="-1036.01" y1="-1021.01" x2="-1460.99" y2="-1445.99" gradientTransform="translate(-849 -837) rotate(-180)" gradientUnits="userSpaceOnUse">
      <stop offset="0" stop-color="#51247a"/>
      <stop offset=".2" stop-color="#4e2276"/>
      <stop offset=".37" stop-color="#481e6c"/>
      <stop offset=".53" stop-color="#3e165b"/>
      <stop offset=".68" stop-color="#2f0b43"/>
      <stop offset=".8" stop-color="#1f0029"/>
    </linearGradient>
  </defs>
  <g id="uuid-f7aa1d3d-e0f0-480d-8406-cb5568b4a6a6" data-name="Icon--Learn.UQ // Practice">
    <circle cx="399.5" cy="396.5" r="300.5" fill="url(#uuid-b502bd70-d8db-4700-856c-ae28aa128a36)"/>
    <path d="M401.44,316.2c-47.23,0-84.77,37.54-84.77,84.77s37.54,84.77,84.77,84.77,84.77-37.54,84.77-84.77-37.54-84.77-84.77-84.77ZM401.44,461.52c-33.91,0-60.55-26.64-60.55-60.55s26.64-60.55,60.55-60.55,60.55,26.64,60.55,60.55-26.64,60.55-60.55,60.55Z" fill="#fff"/>
    <path d="M579.47,361.01l-33.91-10.9-7.27-18.17,16.95-31.49c3.63-7.27,2.42-16.95-3.63-23.01l-29.07-29.07c-6.06-6.06-15.74-7.27-23.01-3.63l-31.49,16.95-18.17-7.27-10.9-33.91c-2.42-7.27-9.69-13.32-18.17-13.32h-41.18c-8.48,0-15.74,6.06-16.95,14.53l-10.9,33.91c-7.27,1.21-13.32,3.63-19.38,7.27l-31.49-16.95c-7.27-3.63-16.95-2.42-23.01,3.63l-29.07,29.07c-6.06,6.06-7.27,15.74-3.63,23.01l15.74,30.28c-2.42,6.06-4.84,13.32-7.27,19.38l-33.91,10.9c-7.27,2.42-13.32,9.69-13.32,18.17v41.18c0,8.48,6.06,15.74,14.53,18.17l33.91,10.9,7.27,18.17-16.95,31.49c-3.63,7.27-2.42,16.95,3.63,23.01l29.07,29.07c6.06,6.06,15.74,7.27,23.01,3.63l31.49-16.95,18.17,7.27,10.9,35.12c2.42,7.27,9.69,13.32,18.17,13.32h41.18c8.48,0,15.74-6.06,18.17-13.32l10.9-35.12,18.17-7.27,31.49,16.95c7.27,3.63,16.95,2.42,23.01-3.63l29.07-29.07c6.06-6.06,7.27-15.74,3.63-23.01l-16.95-31.49,7.27-18.17,35.12-10.9c7.27-2.42,13.32-9.69,13.32-18.17v-41.18c0-8.48-6.06-16.95-14.53-19.38ZM569.78,417.93l-43.6,13.32-1.21,6.06c-3.63,8.48-7.27,16.95-10.9,25.43l-3.63,6.06,21.8,39.96-24.22,24.22-39.96-21.8-6.06,3.63c-8.48,4.84-16.95,8.48-25.43,10.9l-6.06,1.21-13.32,43.6h-33.91l-13.32-43.6-6.06-1.21c-8.48-3.63-16.95-7.27-25.43-10.9l-6.06-3.63-39.96,21.8-24.22-24.22,21.8-39.96-3.63-6.06c-4.84-8.48-8.48-16.95-10.9-25.43l-1.21-6.06-43.6-13.32v-33.91l41.18-12.11,2.42-6.06c2.42-9.69,6.06-18.17,10.9-26.64l3.63-6.06-20.59-39.96,24.22-24.22,38.75,21.8,6.06-3.63c8.48-4.84,16.95-8.48,26.64-10.9l6.06-2.42,13.32-42.39h33.91l13.32,42.39,6.06,2.42c8.48,2.42,16.95,6.06,25.43,10.9l6.06,3.63,39.96-21.8,24.22,24.22-21.8,39.96,3.63,6.06c4.84,8.48,8.48,16.95,10.9,25.43l1.21,6.06,43.6,13.32v33.91Z" fill="#fff"/>
  </g>
</svg>