<?xml version="1.0" encoding="UTF-8"?>
<svg id="uuid-deac4fe9-6323-4799-98dc-6de706fd67bc" data-name="Icons" xmlns="http://www.w3.org/2000/svg" viewBox="0 0 800 800">
  <g id="uuid-5fcee84e-8d14-485d-acfc-3b69be2ecb84" data-name="Icon--discussion">
    <path d="M678.12,311.98c-10.97,5.67-22.64,9.81-34.7,12.31,6.09,18.97,9.25,38.78,9.36,58.74-.85,57.87-25.56,112.73-68.11,151.23-3.73,3.51-5.86,8.44-5.88,13.61v99.58l-80.41-52.03c-4.54-2.91-10.11-3.66-15.24-2.05-28.3,8.93-57.76,13.45-87.39,13.43-141.73,0-257.03-100.32-257.03-223.76s115.3-223.76,257.03-223.76c28.28,0,56.42,4.14,83.54,12.31,1.15-12.38,3.92-24.55,8.26-36.18-29.83-8.84-60.73-13.36-91.8-13.43-161.93,0-293.75,117.1-293.75,261.06s131.82,261.06,293.75,261.06c30.3-.04,60.44-4.3,89.59-12.68l101.53,65.64c8.53,5.56,19.89,3.04,25.37-5.63,1.89-3,2.9-6.48,2.91-10.04v-125.49c46.41-45.22,72.89-107.54,73.44-172.86.2-24.09-3.33-48.07-10.46-71.05Z" fill="#51247a"/>
    <path d="M267.23,364.38c-10.14,0-18.36,8.35-18.36,18.65s8.22,18.65,18.36,18.65h257.03c10.14,0,18.36-8.35,18.36-18.65s-8.22-18.65-18.36-18.65h-257.03Z" fill="#00a2c7"/>
    <path d="M326.9,457.62c-10.14,0-18.36,8.35-18.36,18.65s8.22,18.65,18.36,18.65h137.7c10.14,0,18.36-8.35,18.36-18.65s-8.22-18.65-18.36-18.65h-137.7Z" fill="#00a2c7"/>
    <path d="M254.02,289.79c0,10.3,8.22,18.65,18.36,18.65h246.75c6.21-.11,11.95-3.41,15.24-8.76-10.8-8.06-20.38-17.67-28.46-28.53h-233.53c-10.14,0-18.36,8.35-18.36,18.65Z" fill="#00a2c7"/>
    <circle cx="616.52" cy="186.86" r="100.04" fill="#51247a"/>
  </g>
</svg>