<?xml version="1.0" encoding="UTF-8"?>
<svg id="uuid-dcb6797c-afb6-4b43-8b16-12cfe4e672f7" data-name="Icons" xmlns="http://www.w3.org/2000/svg" viewBox="0 0 800 800">
  <g id="uuid-3dcad699-0ad3-4450-a860-a0ff25545d0b" data-name="Icon--book">
    <path d="M597.09,196.12H235.13c-19.74-.28-35.51-16.31-35.23-35.82,0-.52.03-1.04.06-1.56-.05-19.66,15.33-36,35.17-37.37h361.96c10.44,0,18.91-8.37,18.91-18.69s-8.47-18.69-18.91-18.69H235.13c-40.74,1.41-73.02,34.47-73,74.75-.18,3.05-.18,6.11,0,9.16-.18,1.49-.18,3,0,4.48v434.86c-.02,40.28,32.26,73.34,73,74.75h361.96c10.44,0,18.91-8.37,18.91-18.69V216.12c.02-10.55-8.26-19.31-18.91-20ZM578.18,644.62H235.13c-19.85-1.38-35.22-17.71-35.17-37.38V225.09c10.75,5.86,22.9,8.77,35.17,8.41h343.04v411.12Z" fill="#51247a"/>
    <path d="M231,144.42h331.36c8.66-.75,15.87,6.46,15.64,14.58-.22,7.82-7.3,14.46-15.64,13.72H231c-6.33-1.67-10.81-7.3-11-13.72-.19-6.73,4.37-12.82,11-14.58Z" fill="#51247a"/>
    <path d="M253.21,342.77h273.77c8.4,0,15.21-6.95,15.21-15.53s-6.81-15.53-15.21-15.53H253.21c-8.4,0-15.21,6.95-15.21,15.53s6.81,15.53,15.21,15.53Z" fill="#00a2c7"/>
    <path d="M254.02,399.89h273.77c8.4,0,15.21-6.95,15.21-15.53s-6.81-15.53-15.21-15.53H254.02c-8.4,0-15.21,6.95-15.21,15.53s6.81,15.53,15.21,15.53Z" fill="#00a2c7"/>
    <path d="M254.02,457h152.09c8.4,0,15.21-6.95,15.21-15.53s-6.81-15.53-15.21-15.53h-152.09c-8.4,0-15.21,6.95-15.21,15.53s6.81,15.53,15.21,15.53Z" fill="#00a2c7"/>
  </g>
</svg>