<?xml version="1.0" encoding="UTF-8"?>
<svg id="uuid-9d3faa55-d514-485e-bd6a-e6a028d0d54d" data-name="Icons" xmlns="http://www.w3.org/2000/svg" viewBox="0 0 800 800">
  <g id="uuid-371d86da-2d96-4d1d-a543-288b67ea695b" data-name="Icon--design">
    <polygon points="226.99 397.22 226.99 570.59 400.35 570.59 364.2 534.43 263.15 534.43 263.15 433.38 226.99 397.22" fill="#00a2c7"/>
    <path d="M694.65,666.22l-51.88-52.6v47.36H136.61v-75.02h36.15v-28.92h-36.15v-120.21h36.15v-28.92h-36.15v-115.69h36.15v-28.92h-36.15v-101.05l288.15,286.53v-50.98L131.36,105.82c-7.03-7.09-18.48-7.14-25.56-.11-3.45,3.42-5.38,8.08-5.35,12.94v560.4c0,9.98,8.09,18.08,18.08,18.08h563.29c9.98.06,18.12-7.99,18.18-17.97.03-4.86-1.9-9.52-5.35-12.94Z" fill="#51247a"/>
    <path d="M498.15,624.82h72.31c19.97,0,36.15-16.19,36.15-36.15V239.77l-41.58-76.47c-6.55-11.34-18.72-18.26-31.82-18.08h0c-13.4.11-25.65,7.62-31.82,19.52l-39.41,75.38v348.53c0,19.97,16.19,36.15,36.15,36.15ZM498.15,248.81l35.07-68.15,37.24,68.33v267.36h-72.31V248.81ZM498.15,545.82h72.31v44.11h-72.31v-44.11Z" fill="#00a2c7"/>
  </g>
</svg>