<?xml version="1.0" encoding="UTF-8"?>
<svg id="uuid-1696b8f0-0744-4fe6-acbd-7a3e7059d968" data-name="Icons" xmlns="http://www.w3.org/2000/svg" viewBox="0 0 800 800">
  <g id="uuid-16a9e729-d096-45ab-9fcb-9b43db816702" data-name="Icon--library">
    <path d="M698.72,630.37l-132.32-354.77c-7.69-20.57-30.37-30.92-50.64-23.11,0,0,0,0,0,0l-62.04,23.7v-58.37c0-21.12-16.88-38.25-37.69-38.25h-99.73v-41.43c0-21.12-16.88-38.25-37.69-38.25h-138.99c-21.68,0-39.26,17.84-39.26,39.84v537.83c0,11,8.79,19.92,19.63,19.92h314.11c10.84,0,19.63-8.92,19.63-19.92v-253.58l98.16,263.14c3.85,10.29,15.18,15.46,25.32,11.56,0,0,0,0,0,0l110.13-42.63c10.14-3.9,15.24-15.41,11.39-25.69,0,0,0,0,0,0ZM277.03,216.04v441.62h-137.42V139.75h137.42v76.29ZM414.45,657.66h-98.16V219.43h98.16v438.24ZM581.51,652.68l-125.25-335.25,73.42-28.29,125.45,335.25-73.62,28.29Z" fill="#51247a"/>
    <path d="M198.69,599.02v20.17c.75,4.55,4.75,7.89,9.31,7.81,4.44-.07,8.27-3.37,9-7.81v-20.17c-.11-4.94-4.14-8.94-9-9.02-4.97-.08-9.19,3.96-9.31,9.02Z" fill="#00a2c7"/>
    <path d="M358.5,598.64v20.17c.6,4.55,3.76,7.89,7.37,7.81,3.52-.07,6.55-3.37,7.13-7.81v-20.17c-.09-4.94-3.28-8.94-7.13-9.02-3.94-.08-7.28,3.96-7.37,9.02Z" fill="#00a2c7"/>
    <path d="M595.15,592.62l6.8,18.99c2.04,4.11,5.86,6.28,8.91,5.11,2.97-1.14,4.44-5.17,3.43-9.53l-6.8-18.99c-1.74-4.62-5.81-7.41-9.11-6.32-3.38,1.12-4.86,5.95-3.23,10.74Z" fill="#00a2c7"/>
  </g>
</svg>