<?xml version="1.0" encoding="UTF-8"?>
<svg id="uuid-2827519c-7696-49e8-b7cf-62fb0d7507e2" data-name="Icons" xmlns="http://www.w3.org/2000/svg" viewBox="0 0 800 800">
  <g id="uuid-af0d7ea1-567a-4fb6-89ea-0eb27e911eb5" data-name="Icon--dashboard">
    <path d="M681.95,328.54v329.68H133.2V198.59h363.94c-.9-6.94-1.35-13.91-1.37-20.89.02-7,.47-13.98,1.37-20.89H133.2c-21.66,0-39.2,18.7-39.2,41.78v459.63c0,23.06,17.54,41.78,39.2,41.78h548.75c21.64,0,39.2-18.72,39.2-41.78v-348.06c-12.15,8.15-25.36,14.33-39.2,18.39Z" fill="#51247a"/>
    <polygon points="356.62 359.14 246.63 530.54 172.57 460.3 191.95 436.82 241.26 483.59 356.87 303.44 480.24 499.72 603.68 324.8 627 343.73 478.85 553.61 356.62 359.14" fill="#00a2c7"/>
    <circle cx="629.96" cy="186.81" r="100.04" fill="#51247a"/>
  </g>
</svg>