<?xml version="1.0" encoding="UTF-8"?>
<svg id="uuid-dfc7bb2b-0ebe-4e03-9f83-cfa66d28394a" data-name="Icons" xmlns="http://www.w3.org/2000/svg" viewBox="0 0 800 800">
  <g id="uuid-afdb61a1-cff7-43f4-ab3f-bfd25d9c6afa" data-name="Icon--document">
    <path d="M615,662.55V138.19c0-20.69-16.29-37.45-36.38-37.45H214.82c-20.09,0-36.38,16.77-36.38,37.45v524.36c0,20.69,16.29,37.45,36.38,37.45h363.8c20.09,0,36.38-16.77,36.38-37.45ZM214.82,662.55V138.19h363.8v524.36H214.82Z" fill="#51247a"/>
    <path d="M255.66,277.57h275.23c8.44,0,15.29-8.36,15.29-18.68s-6.85-18.68-15.29-18.68H255.66c-8.44,0-15.29,8.36-15.29,18.68s6.85,18.68,15.29,18.68Z" fill="#00a2c7"/>
    <path d="M253.28,346.29h217.63c6.68,0,12.09-8.36,12.09-18.68s-5.41-18.68-12.09-18.68h-217.63c-6.68,0-12.09,8.36-12.09,18.68s5.41,18.68,12.09,18.68Z" fill="#00a2c7"/>
    <path d="M256.48,415h152.91c8.44,0,15.29-8.36,15.29-18.68s-6.85-18.68-15.29-18.68h-152.91c-8.44,0-15.29,8.36-15.29,18.68s6.85,18.68,15.29,18.68Z" fill="#00a2c7"/>
  </g>
</svg>