<?xml version="1.0" encoding="UTF-8"?>
<svg width="100pt" height="100pt" version="1.1" viewBox="0 0 100 100" xmlns="http://www.w3.org/2000/svg">
 <path d="m94.102 48.602c-3.6992-18.102-29.398-19.398-30.801-19.398l-2-1c-1.6992-0.39844-3.1992-0.19922-4.3984 0.69922-2.6016 1.8984-3.1016 6.1016-3.1016 6.6016l-0.19922-0.10156-0.10156 0.80078c0 0.10156-0.10156 0.60156-0.19922 1.5l-7.8008-3-0.39844 0.89844 0.89844 0.5-8.8008-0.69922 4.8984 1.6016h-9.6992l5.3984 1.1992-12.598 0.79688 5.6016 1-6.3008 1.8984 2.6992 0.80078-6.8008 3.1992 1.6016 0.69922-3.6992 2.3008-1 1.8008c-3.1016 0-6.1016 1.3984-8.3008 3.8008l-1 1.1992 6.1992-1.3984-8 3.3008 0.30078 0.89844 4.3008-1.1016-4.1992 1.8008 0.39844 0.90234 10.301-3.6992-10.301 5.8984 0.5 1 9.3008-4.5-7.3984 5 0.5 0.80078 5.3008-3-5.3984 4 0.60156 0.80078 7.5938-4.4023-4.3008 3.6016 0.60156 0.80078 1.1992-0.80078-2.6992 2.1992 0.60156 0.80078 5.1016-3.3984-3.6992 3.3008 0.60156 0.80078 6.6016-4.5-0.30078 0.39844 2.5-0.30078-1.6992 1.3008 0.60156 0.80078 1.8984-1.3984 0.60156 0.5-0.10156 0.10156c0.10156 0.19922 0.60156 0.30078 1.3008 0.30078 1.3984 0 3.6992-0.30078 7-1l2.3008-0.39844c0.89844 3.1992 1.6016 6.6992 1 7.3008-0.80078 0.89844-1 2.1992-0.5 3.3008 0.10156 0.5 0.39844 2.5 0.60156 4.1016-1.1016 0.10156-3.1992 0.5-3.6016 1.8008l-0.30078 0.89844 0.89844-0.30078c0.69922-0.19922 1.3984-0.39844 2.1016-0.5 0.60156-0.10156 1.1992-0.10156 1.8008 0 0.30078 0.10156 0.5 0.19922 0.69922 0.30078h0.10156c0.19922 0 0.30078 0.10156 0.5 0.19922h0.19922c1 0 1.8984 0.60156 2.3984 1.3984l1.3008 1.3008-0.19922-1.3984c0-0.19922 0-0.30078-0.10156-0.5 0.30078 0.19922 0.60156 0.39844 0.89844 0.60156 0 0.39844 0.10156 0.80078 0.5 0.80078h0.5v-0.5c0-0.30078-0.10156-1.8008-1-2.8008 0.30078 0.10156 0.60156 0.30078 0.69922 0.60156l0.89844 1.8984-0.003906-2.6133c0.69922 0.30078 1.3008 0.60156 1.8984 0.89844l2 1-1.3984-1.7969c0.10156 0.10156-0.10156-0.19922-0.19922-0.39844l5.3008 1.3008-3.5-1.8984c-0.10156 0-0.10156-0.10156-0.10156-0.19922l-0.10156-0.19922-1.1016-0.5c0.5 0 1 0.10156 1.3984 0.30078l1.5 0.60156-0.89844-1.3008c-0.10156-0.19922-0.19922-0.30078-0.30078-0.5v-0.10156l-0.10156-0.10156c-1.6016-1-3.6016-1.1016-5.3008-0.30078v-4.5c0.19922-0.39844 0.5-1.1992 0.39844-2.8984l0.007812-8.4062 0.19922-0.10156 1.1016 1.3984 2.1992-2.8984v2l2.6992-3.1016-1.3008 3.5 4.8008-5.3984-0.39844 1.8984 1 0.30078 1.3008-3.3984-0.60156 3.9023 0.80078-0.19922c1.1016-0.30078 1.6992-3 2-5.3984l1.3984 4.3008v-6.3984l2.1992 5.1992-1-7 1.8008 3.3984-0.69922-4 1.6992 3.6992-2.1016-10.898 2.6016 3.1992-2.8984-7.1016c1.8984-1.1992 3.1016-3.5 3.3984-4.1016 18.898-1.3984 28.398 13.801 28.5 14l0.69922 1.1992zm-33.203-9.2031s0.10156 0 0.10156-0.10156l0.5 0.89844zm-49.797 14.602c1.8008-1.3984 4-2.1992 6.3008-2.1992 0.69922 0 1.5 0 2.3008 0.30078zm30.398 18.898c0.10156 0.10156 0.19922 0.30078 0.30078 0.39844v1.1992c0.39844 1.3008 0.39844 2.8008 0 4.1016v0.30078c-0.19922 0.19922-0.39844 0.39844-0.60156 0.5h-0.30078c-0.39844 0.10156-0.80078 0.10156-1.1992 0.10156v-1.1016c-0.19922-0.89844-0.19922-1.8984 0-2.8984v-5.8984l-0.60156-5 2.6992-0.5 0.39844 6c-0.89453 0.59766-1.1953 1.7969-0.69531 2.7969zm20.398-26.699-1.6016-3.5 1 5.5-1.6016-2.8008 0.69922 5-1.1992-2.8008v5l-0.69922-2.1992 0.39844-3-2.6016 6.6992-3.6016 4 1.3984-3.6992-4.6016 5.3984v-2.3008l-3.1992 4.3008-0.89844-1.1016-3.3906 2.3047-3 0.5-3.3008 0.60156-2.1992 0.39844c-2.6992 0.5-6 1-7.1016 1l-0.59766-0.5 2.1016-1.6016-3.5 0.5 2.1992-2.3984h0.60156l7-0.60156 3.3984-2-0.60156 0.60156 1.3984-0.10156c1-0.10156 2.3008-0.89844 3.3984-1.8008h0.60156c1.1992 0 2.6992-1.3984 3.8008-2.6016l-0.69922 3 2.1992-2.6992-0.39844 0.70312 1.1992-0.30078c1.1016-0.39844 3.6992-4.8984 4.8008-6.8008l-0.89844-0.5-0.10156 0.10156 0.80078-1.5-5.6016 7 0.69922-3.1992-1.3984 1.8984c-0.80078 1.1016-2 2.5-3.1016 3.3008l0.5-0.60156-0.69922-0.5 1.5-1.5-10 5.8984 0.39844-0.80078-1.3984 0.003906 0.5 1.1016-0.60156 0.39844-6.3984 0.60156 0.39844-0.5-0.80078 0.5h-1.8984v1h0.30078l-5.8008 3.6016 4.3984-3.8984-0.60156-0.80078-2.8008 1.8984 2.6992-2.3008-0.60156-0.80078-1.5 1 1.8008-1.5-0.59375-0.80078-5.5 3.1992 5.1016-3.8008-0.5-0.80078-0.89844 0.5 2.1016-1.3984-0.5-0.89844-2.8984 1.3984 3.3984-1.8984-0.39844-0.89844-5.6016 2-0.19922-0.60156-3.5 0.89844 7.1016-2.8984-0.20703-0.80078c0.30078 0.10156 0.60156 0.19922 0.89844 0.30078l0.30078-0.89844c-0.89844-0.30078-1.8008-0.60156-2.8008-0.60156l0.60156-1.1992 5.1992-3.1992-1.3008-0.5 7.1016-3.3984-2-0.60156 7.1992-2.1992-1.6016-0.19922 11.402-0.80469-3.1016-0.69922h6.6016l-2.8984-0.89844 4.1016 0.30078 3.3984 1.3984v0.19922c-0.80078 1.3984-2.1016 3.1016-3.1016 4.1992l0.80078 0.60156c0.19922-0.30078 0.80078-0.89844 1.5-1.8008l0.80078 0.30078c0.39844-1 0.80078-2 1-3 0.30078-0.60156 0.60156-1.1016 0.69922-1.6016 0.60156 0.5 1.5 1.1016 2.8008 1.6016 1 0.5 2.1016 0.5 3.1016 0.19922z"/>
 <path d="m32.301 54.602h1.5v1.3984h-1.5z"/>
 <path d="m34.699 56.301h1.1992v1.1016h-1.1992z"/>
 <path d="m33.801 57.898v1.2031l-1.5-0.5v-0.70312z"/>
 <path d="m56.801 47.602h1.1992v1h-1.1992z"/>
 <path d="m56.301 49.102v1.2969l-1-0.59766v-0.69922z"/>
 <path d="m55.801 51.602 0.19922-0.39844z"/>
 <path d="m56.398 51.602-0.19922 0.29688-0.89844-0.59766 0.30078-0.30078z"/>
 <path d="m55.102 45.898h0.39844v1h-0.39844z"/>
 <path d="m38 54.699" fill="none" stroke="#000" stroke-miterlimit="10"/>
 <path d="m35.898 51.5" fill="none" stroke="#000" stroke-miterlimit="10"/>
</svg>
