<svg width="25" height="24" viewBox="0 0 25 24" fill="none" xmlns="http://www.w3.org/2000/svg">
<path d="M6.53443 5.05733C7.00586 3.55732 7.73444 2.57159 8.59159 2.57159C9.44874 2.57159 10.1773 3.55732 10.6487 5.05733" stroke="#19151C" stroke-linecap="round" stroke-linejoin="round"/>
<path d="M10.6059 12.0002C10.1345 13.5002 9.40588 14.4859 8.54873 14.4859C7.69158 14.4859 7.00586 13.5431 6.53443 12.0002" stroke="#19151C" stroke-linecap="round" stroke-linejoin="round"/>
<path d="M7.34886 6.42858C10.2632 4.8 13.1775 4.41428 13.8632 5.57143C14.5489 6.77144 12.7489 9.04289 9.83459 10.6715C6.92028 12.3001 4.00597 12.6858 3.32026 11.5286C2.63454 10.3715 4.43455 8.05716 7.34886 6.42858Z" stroke="#19151C" stroke-linecap="round" stroke-linejoin="round"/>
<path d="M3.27727 5.57163C3.96299 4.37162 6.87729 4.75734 9.7916 6.42878C12.7059 8.05737 14.5059 10.3717 13.8202 11.5288C13.1345 12.7288 10.2202 12.3431 7.30587 10.6717C4.43442 9.04309 2.59155 6.72878 3.27727 5.57163Z" stroke="#19151C" stroke-linecap="round" stroke-linejoin="round"/>
<path d="M8.5911 8.22864C8.76399 8.22864 8.89365 8.3583 8.89365 8.53118" stroke="#19151C" stroke-linecap="round" stroke-linejoin="round"/>
<path d="M8.24902 8.53118C8.24902 8.3583 8.37868 8.22864 8.55156 8.22864" stroke="#19151C" stroke-linecap="round" stroke-linejoin="round"/>
<path d="M8.59426 8.87414C8.42138 8.87414 8.29172 8.74448 8.29172 8.57159" stroke="#19151C" stroke-linecap="round" stroke-linejoin="round"/>
<path d="M8.89365 8.52866C8.89365 8.70154 8.76399 8.8312 8.5911 8.8312" stroke="#19151C" stroke-linecap="round" stroke-linejoin="round"/>
<path d="M6.96338 21.4304V18.3002" stroke="#19151C" stroke-linecap="round" stroke-linejoin="round"/>
<path d="M12.406 2.57159C18.4918 2.57159 19.7775 7.50021 21.9633 13.0288C22.0918 13.3717 21.9204 13.7145 21.5775 13.8431C21.4918 13.886 21.449 13.886 21.3633 13.886H19.7347V16.4146C19.7347 17.786 18.5775 18.9432 17.1632 18.9432H15.8775V21.4289" stroke="#19151C" stroke-linecap="round" stroke-linejoin="round"/>
</svg>
