<?xml version="1.0" encoding="UTF-8"?>
<svg id="Layer_1" xmlns="http://www.w3.org/2000/svg" version="1.1" xmlns:xlink="http://www.w3.org/1999/xlink" viewBox="0 0 149.1 116.3">
  <!-- Generator: Adobe Illustrator 29.2.1, SVG Export Plug-In . SVG Version: 2.1.0 Build 116)  -->
  <defs>
    <style>
      .st0 {
        fill: #fff;
      }
    </style>
  </defs>
  <path class="st0" d="M127.4,88.2h-3.1v.6h.2c.5,0,.7,0,.9.3l.2.2c.2.2.4.4.6.7v8.5c0,.5-.4.7-.9.7h-.2v.6h3.4v-.6h-.2c-.4,0-.9-.2-.9-.7v-7l7.1,8.3h0s.5,0,.5,0v-10.3c0-.5.4-.7.8-.7h.3v-.6h-3.4v.6h.2c.4,0,.9.3.9.7v6l-6.3-7.3h0ZM115.2,113.4l.8-1.8.8,1.8h-1.6ZM113.1,115.8h-.2v.4h1.9v-.4h-.2c-.1,0-.2,0-.2-.1,0,0,0-.1,0-.2l.6-1.4h2.1l.6,1.4c0,0,0,.2,0,.2,0,0-.1.1-.2.1h-.3v.4h2.4v-.4h-.2c-.2,0-.4-.2-.5-.5l-2.5-5.7s0-.1-.2-.1c0,0-.1,0-.2.1l-2.4,5.8c0,.2-.3.5-.5.5M107.8,109.5h-2.5v.4h.2c.2,0,.5,0,.5.6v4.7c0,.4-.1.6-.5.6h-.2v.4h2.5v-.4h-.1c-.3,0-.5-.2-.5-.6v-4.7c0-.5.3-.6.5-.6h.1v-.4ZM97.4,109.5h-2.5v.4h.1c.1,0,.5,0,.5.6v4.7c0,.5-.3.6-.5.6h-.2v.4h4.9l.6-2h-.4c-.3.9-.7,1.3-1.4,1.3h-1.5c-.1,0-.2-.1-.2-.3v-4.7c0-.4.1-.6.5-.6h.1v-.4h0ZM85.4,113.4l.8-1.8.8,1.8h-1.6ZM83.3,115.8h-.2v.4h1.9v-.4h-.2c-.1,0-.2,0-.2-.1,0,0,0-.1,0-.2l.6-1.4h2.1l.6,1.4c0,0,0,.2,0,.2,0,0-.1.1-.2.1h-.3v.4h2.4v-.4h-.2c-.2,0-.4-.2-.5-.5l-2.5-5.7s0-.1-.2-.1c0,0-.1,0-.2.1l-2.4,5.8c0,.2-.3.5-.5.5M82.4,88.2h-3.1v.6h.2c.5,0,.7,0,.9.3l.2.2c.2.2.4.4.6.7v8.5c0,.5-.5.7-.9.7h-.2v.6h3.4v-.6h-.2c-.4,0-.9-.2-.9-.7v-7l7.1,8.3h0s.5,0,.5,0v-10.3c0-.5.4-.7.8-.7h.2v-.6h-3.4v.6h.2c.4,0,.9.3.9.7v6l-6.3-7.3h0ZM85.1,67.5c0,0,.1.2,0,.4l-2.6,6.6-2.9-6.6c0-.2,0-.3,0-.4,0-.1.2-.2.3-.2h.5v-.6h-4.1v.6h.2c.4,0,.6.3.9.9l4.3,10h0c0,.1.2.2.3.2h0c.1,0,.2,0,.3-.2l3.9-9.9c.3-.7.6-.9.9-.9h.2v-.6h-2.9v.6h.3c.1,0,.3,0,.4.2M73.9,110.2c.2,0,.4,0,.4,0,.7,0,1.3.5,1.3,1.2s-.6,1.2-1.3,1.2h-.4v-2.3ZM73.8,109.5h-1.8v.4h.2c.3,0,.5.2.5.6v4.7c0,.5-.2.6-.5.6h-.2v.4h2.5v-.4h-.1c-.3,0-.5-.2-.5-.6v-2h.3l2.2,3h1.6v-.4h-.1c-.2,0-.3-.2-.5-.4l-1.9-2.4c.8-.3,1.4-1,1.4-1.7,0-.5-.2-.9-.5-1.2-.5-.4-1.4-.6-2.7-.6M77.5,88.2h-8.4v.6h.2c.6,0,.9.3.9,1v8.3c0,.7-.3,1-.9,1h-.2v.6h8.6l1.1-3.3h-.7c-.5,1.6-1.2,2.2-2.5,2.2h-2.8c-.2,0-.4-.1-.4-.4v-4h3.1c.5,0,.7.5.7.9v.2h.6v-3.4h-.6v.2c0,.4-.2.9-.7.9h-3.1v-3.8h3.3c.8,0,1.4.6,1.4,1.7h0c0,.1.6.1.6.1l-.2-2.9ZM73.9,76.7v-8.3c0-.7.3-1,.9-1h.2v-.6h-4.3v.6h.2c.6,0,.9.3.9,1v8.3c0,.7-.3,1-.9,1h-.2v.6h4.3v-.6h-.2c-.6,0-.9-.3-.9-1M61.4,109.7v1.6c0,0,.3,0,.3,0h0c0-.7.3-1,.7-1h1.2v5c0,.4-.1.5-.5.5h-.1v.4h2.5v-.4h-.1c-.4,0-.5-.1-.5-.5v-5h1.2c.3,0,.6.1.7.9h0c0,.1.4.1.4.1v-1.6c0,0-.1-.1-.2-.1h-5.3c0,0-.2,0-.2.1M66.7,88.2h-8.4v.6h.2c.6,0,.9.3.9,1v8.3c0,.7-.3,1-.9,1h-.2v.6h8.7l1-3.3h-.7c-.5,1.6-1.2,2.2-2.5,2.2h-2.8c-.2,0-.5-.1-.5-.4v-4h3.1c.4,0,.7.5.7.9v.2h.6v-3.4h-.6v.2c0,.4-.2.9-.7.9h-3.1v-3.8h3.3c.9,0,1.4.6,1.5,1.7h0c0,.1.6.1.6.1l-.2-2.9ZM60.6,66.7h-3.1v.6h.2c.4,0,.7,0,.9.3.1.2.3.3.4.5,0,.1.2.2.3.4v8.5c0,.5-.4.7-.8.7h-.3v.6h3.5v-.6h-.2c-.4,0-.9-.2-.9-.7v-7l7.2,8.3h0s.5,0,.5,0v-10.3c0-.5.4-.7.9-.7h.2v-.6h-3.4v.6h.2c.4,0,.8.2.8.7v6l-6.4-7.3ZM54.9,114.1c.3.4.2.9-.2,1.3-.3.3-.7.3-1.2.1-.5-.2-1-.8-1-1.6h0c0-.1-.4-.1-.4-.1v2.4h.4c0-.2,0-.3.2-.3,0,0,.1,0,.2,0,.4.2.9.4,1.4.4s.8-.1,1.2-.4c.7-.5,1-1.5.5-2.3-.4-.7-1.3-1.2-2.1-1.6h-.1c-.4-.3-.7-.6-.7-1s.2-.5.4-.7c.3-.2.7-.2,1.1,0,.5.3.8.9.8,1.5h0c0,.1.4.1.4.1v-2.3h-.4c0,.2,0,.2-.1.3,0,0-.2,0-.3,0-1-.5-1.7-.4-2.4.2-.4.4-.6,1-.6,1.5,0,.5.4,1,.9,1.3.2.1.3.2.5.3.6.3,1.2.7,1.4,1M46.8,95.8c0,2.4,1.9,4.1,4.6,4.1s4.5-1.5,4.5-3.9v-6.6c0-.4.2-.6.6-.6h.5v-.6h-3.4v.6h.5c.4,0,.6.2.6.6v6.6c0,1.8-1.6,2.7-3.1,2.7s-2.6-1.2-2.6-2.8v-6.1c0-.5.4-.9.8-.9h.2v-.6h-4.3v.6h.2c.5,0,.8.5.8.9v6.1h0ZM43.2,109.5h-2.5v.3h0c0,.1.1.1.1.1.3,0,.5.3.5.5v3.5c0,1.4,1.1,2.3,2.6,2.3s2.6-.9,2.6-2.2v-3.8c0-.1,0-.3.3-.3h.3v-.4h-2v.4h.3c.2,0,.3.1.3.3v3.8c0,1-.9,1.5-1.8,1.5s-1.4-.7-1.4-1.6v-3.5c0-.3.2-.5.5-.5h.1v-.4h0ZM31.3,113.4l.8-1.8.8,1.8h-1.6ZM29.2,115.8h-.2v.4h1.9v-.4h-.2c-.1,0-.2,0-.2-.1,0,0,0-.1,0-.2l.6-1.4h2.1l.6,1.4c0,0,0,.2,0,.2,0,0-.1.1-.2.1h-.3v.4h2.4v-.4h-.2c-.2,0-.4-.2-.5-.5l-2.5-5.7s0-.1-.2-.1c0,0-.1,0-.2.1l-2.4,5.8c0,.2-.3.5-.5.5M24.3,88.2h-8.9v.6h.2c.6,0,.9.3.9,1.1v8.3c0,.7-.3,1-.9,1h-.2v.6h4.4v-.6h-.3c-.6,0-.9-.3-.9-1v-4h3.1c.6,0,.6.8.6.9v.2h.6v-3.4h-.6v.2c0,.1,0,.9-.6.9h-3.1v-3.8h3.9c.8,0,1.4.7,1.4,1.7h0c0,.1.6.1.6.1l-.2-2.9ZM11.6,67.6h.7v-3.6c-.1-.1-.3-.3-.4-.3H.4c-.1,0-.2.2-.2.3v3.6c-.1,0,.5,0,.5,0h0c0-1.2.4-2.4,1.7-2.4h2.5v11.2c0,.6-.5,1.2-1.1,1.2h-.8v.7h6.5v-.7h-.8c-.6,0-1.1-.6-1.1-1.2v-11.2h2.5c1.3,0,1.6,1.2,1.7,2.2h0ZM11,92.4c0,3.8-1.6,6.3-4.1,6.3h0c-.8,0-1.6-.3-2.3-1-1.1-1.1-1.8-3-1.8-5.3,0-1.4.3-6,4.1-6.2,1.5,0,4,1,4.1,6.1M13.8,92.5c0-4.3-2.8-7.4-6.9-7.4-.1,0-2.6-.1-4.6,1.7-1.4,1.3-2.2,3.2-2.3,5.7,0,4.3,2.9,7.4,6.9,7.4s6.9-3.1,6.9-7.4M20.5,78.3h4.4v-.6h-.3c-.6,0-.9-.3-.9-1v-8.3c0-.7.3-1,.9-1h.3v-.6h-4.4v.6h.2c.6,0,.9.3.9,1v3.5h-4.5v-3.5c0-.7.3-1,.9-1h.2v-.6h-4.4v.6h.2c.6,0,.9.3.9,1v8.3c0,.8-.2,1-.9,1h-.2v.6h4.4v-.6h-.2c-.6,0-.9-.3-.9-1v-3.7h4.5v3.7c0,.7-.3,1-.9,1h-.2v.6ZM35.3,78.3l1-3.3h-.7c-.4,1.5-1.2,2.2-2.5,2.2h-2.8c-.2,0-.4-.2-.4-.4v-4h3.1c.4,0,.6.5.6.9v.2h.6v-3.4h-.6v.2c0,.4-.2.9-.6.9h-3.1v-3.8h3.3c.8,0,1.4.6,1.4,1.7h0c0,.1.6.1.6.1l-.2-2.9h-8.4v.6h.2c.6,0,.9.3.9,1v8.3c0,.7-.3,1-.9,1h-.2v.6h8.6ZM41.5,92.5c0,3.1-1.2,6.2-4,6.2s-4.1-2.4-4.1-6.2c0-2.4.6-4.2,1.7-5.2,1-.9,2.1-1,2.3-1h0c2,0,4.1,1.9,4.1,6.2M44.4,92.6c0-5.9-4.6-7.5-7-7.5h0c-4,0-6.9,3.1-6.9,7.4s2.2,6.6,5.5,7.3c2.1,2.2,4.9,3.3,8.3,3.3h.2v-.7h-.1c-2.1-.1-3.8-1.6-4.4-2.9,2.8-1,4.5-3.6,4.5-6.9M46.6,73.4v-7.8c0-.6.5-1.2,1.1-1.2h.4v-.7h-5.6v.7h.3c.7,0,1.1.6,1.1,1.2v7.7c0,3,2.4,5.1,5.8,5.1s5.6-2,5.6-4.9v-8.3c0-.6.3-.8.8-.8h.6v-.7h-4.4v.7h.7c.5,0,.8.3.8.8v8.3c0,2.4-2,3.4-3.9,3.4s-3.3-1.5-3.3-3.6M61.8,26.3h1.1c0-.3-.3-.6-.6-.6-.2,0-.5.3-.6.6M63,26.9h-1.1c0,.3.3.6.6.6s.5-.3.6-.6M61.8,21.2h1.1c0-.3-.3-.6-.6-.6-.2,0-.5.3-.6.6M63,21.8h-1.1c0,.3.3.6.6.6.2,0,.5-.3.6-.6M77.7,29.8q-1.1,0-1.8.3c-.4.2-.9.4-1.5.4s-1.1-.2-1.5-.4q-.7-.3-1.8-.3h-5.5v-2.3h-2.2c-.2.4-.6.6-1,.6-.6,0-1.1-.5-1.2-1.2h-.3c-.2,0-.3-.1-.3-.3s.1-.3.3-.3h.3c.1-.7.6-1.2,1.2-1.2s.7.2,1,.6h2.2v-3.3h-2.2c-.2.4-.6.6-1,.6-.6,0-1.1-.5-1.2-1.2h-.3c-.2,0-.3-.1-.3-.3s.1-.3.3-.3h.3c.1-.7.6-1.2,1.2-1.2s.7.2,1,.6h2.2v-1.7l1.2-.7v10.4h4.3c1.3,0,1.4,0,2.3.4.2.1.6.3,1,.3s.8-.2,1-.3c.9-.4.9-.4,2.3-.4h4.3v-10.2l1.2.5v1.7h2.9c.5,0,.9.4.9.9s-.4.9-.9.9h-2.9v3.3h2.9c.5,0,.9.4.9.9s-.4.9-.9.9h-2.9v2.3h-5.5ZM80.8,27.5h-3.1c-1.5,0-1.7,0-2.7.5v-9c0-.9.9-1.4,2.1-1.4,1.8,0,2.7.6,3.7.4v9.5h0ZM73.8,28c-1-.4-1.3-.5-2.7-.5h-3.1v-9.5c1,.2,1.9-.4,3.7-.4s2.1.5,2.1,1.4v9h0ZM82,31.7c6,.9,8.5,3.2,10.2,6.7h0V9.7h0c-1.7,3.5-4.2,5.8-10.2,6.7.9-6,3.2-8.5,6.7-10.2h0s-28.6,0-28.6,0h0c3.5,1.7,5.8,4.3,6.7,10.2-6-.9-8.5-3.2-10.2-6.7h0v28.6h0c1.7-3.5,4.2-5.8,10.2-6.7-.9,6-3.2,8.5-6.7,10.2h0s28.6,0,28.6,0h0c-3.5-1.7-5.8-4.3-6.7-10.2M97.2,29.5c0,11-9.5,22.1-22.8,26.2-13.3-4.1-22.9-15.3-22.9-26.2V1.2h45.7v28.4h0ZM98.4,29.5V0h-48.1v29.5c0,11.6,10,23.1,23.7,27.4h.4c0,.1.4,0,.4,0,13.7-4.3,23.7-15.8,23.7-27.4M97.4,78.3l1.1-3.3h-.7c-.5,1.5-1.2,2.2-2.5,2.2h-2.8c-.2,0-.4-.2-.4-.4v-4h3.1c.5,0,.7.6.7.9v.2h.6v-3.4h-.6v.2c0,.4-.2.9-.7.9h-3.1v-3.8h3.3c.8,0,1.4.7,1.4,1.7h0c0,.1.6.1.6.1l-.2-2.9h-8.4v.6h.2c.6,0,.9.3.9,1v8.3c0,.7-.3,1-.9,1h-.2v.6h8.6ZM94.5,90.6c0-.5.3-1,.8-1.2.5-.3,1.2-.3,1.9,0,.9.5,1.5,1.5,1.5,2.6v.2h.6v-4h-.6c0,.3-.1.5-.2.5-.1,0-.3,0-.6,0-1.7-.8-3-.7-4.1.3-.7.7-1.1,1.7-1,2.6.1,1,.6,1.8,1.5,2.3.3.2.6.4.9.5,1,.6,2.1,1.2,2.5,1.9.6.8.5,1.6-.4,2.3-.6.5-1.3.6-2.1.2-.9-.4-1.8-1.5-1.8-2.9v-.2h-.6v4.1h.6c0-.3.2-.5.3-.5.1,0,.3,0,.4,0,.7.4,1.5.6,2.4.6s1.5-.2,2.1-.7c1.3-1,1.7-2.6,1-3.9-.6-1.2-2.3-2.2-3.6-2.9h-.2c-.8-.6-1.2-1.2-1.2-1.8M103.8,72.1h-.8v-4.2c.4-.2.8-.1.8-.1,1.3,0,2.3.9,2.3,2.1s-1,2.2-2.3,2.2M107.5,78.3h2.8v-.6h-.2c-.3,0-.6-.3-.8-.6l-3.3-4.3c1.5-.5,2.5-1.7,2.5-2.9,0-.9-.3-1.6-.8-2.1-.9-.8-2.4-1.1-4.7-1h-3.1v.6h.3c.6,0,.9.3.9,1v8.3c0,.7-.3,1-.9,1h-.3v.6h4.4v-.6h-.2c-.6,0-.9-.3-.9-1v-3.5h.5l3.9,5.2ZM110.2,99.8l1-3.4h-.7c-.5,1.6-1.2,2.3-2.5,2.3h-2.6c-.2,0-.4-.3-.4-.5v-8.2c0-.7.3-1.1.9-1.1h.2v-.6h-4.4v.6h.2c.6,0,.9.4.9,1.1v8.2c0,.9-.5,1-.9,1h-.2v.6h8.5ZM115.6,95l1.4-3.3,1.4,3.3h-2.8ZM112,99.1h-.4v.6h3.3v-.6h-.3c-.2,0-.4,0-.5-.2,0-.1,0-.2,0-.3l1-2.4h3.8l1,2.4c0,.2,0,.3,0,.4,0,.1-.2.2-.4.2h-.5v.6h4.2v-.6h-.3c-.4,0-.6-.3-.9-.9l-4.4-10.1s-.1-.2-.3-.2c0,0-.2,0-.4.2l-4.2,10.1c-.2.4-.5.9-1,.9M118.6,73.8c-.7-1.3-2.4-2.2-3.9-3-.7-.4-1.2-1-1.2-1.6,0-.5.3-1,.8-1.3.6-.3,1.3-.3,1.9,0,.7.4,1.5,1.3,1.5,2.6v.2h.6v-4h-.6c0,.3,0,.4-.2.5-.1,0-.4,0-.7,0-1.7-.8-3-.7-4.1.3-.7.7-1.1,1.7-1,2.6,0,.9.6,1.8,1.5,2.3.3.2.5.3.8.5,1,.6,2.1,1.3,2.6,1.9.6.8.5,1.6-.4,2.3-.6.5-1.3.6-2,.2-.9-.4-1.8-1.5-1.8-2.9v-.2h-.6v4.1h.6c0-.3.2-.5.4-.5.1,0,.3,0,.4,0,.8.4,1.5.6,2.3.6s1.5-.2,2.1-.7c1.3-.9,1.7-2.7,1-4M121,78.3h4.4v-.6h-.2c-.6,0-.9-.3-.9-1v-8.3c0-.7.3-1,.9-1h.2v-.6h-4.4v.6h.3c.6,0,.9.3.9,1v8.3c0,.7-.3,1-.9,1h-.3v.6ZM136.5,69.7h.6v-2.8c-.1-.1-.2-.2-.4-.2h-9.3c-.1,0-.2.1-.2.2v2.8c-.1,0,.5,0,.5,0h0c0-1.3.5-1.8,1.3-1.8h2.1v8.9c0,.7-.3,1-.9,1h-.2v.6h4.3v-.6h-.2c-.6,0-.9-.3-.9-1v-8.9h2.1c.5,0,1.1.2,1.2,1.7v.2ZM142.2,89.1c1.6,0,2.9.4,3.7,1.3,1.3,1.4,1.2,3.4,1.2,3.5,0,3-1.8,4.8-4.9,4.8s-.6,0-1-.1v-9.4c.3-.2.9-.1.9-.1M142.2,88.2h-4.4v.6h.2c.4,0,.9.1.9,1.1v8.2c0,.7-.3,1-.9,1h-.2v.6h5.4c3.4,0,6-2.5,6-5.8,0-.2.1-2.4-1.5-4-1.2-1.2-3-1.9-5.5-1.8M149.1,67.4v-.6h-3.1v.6h.4c0,0,.2,0,.2.1s0,.2,0,.4l-2.5,4.2-2.7-4.1c-.1-.2,0-.4,0-.4,0-.1.2-.2.3-.2h.4v-.6h-4.3v.6h.2c.3,0,.6,0,1,.8l3.4,5.2v3.2c0,.7-.3,1-.9,1h-.2v.6h4.4v-.6h-.2c-.6,0-.9-.3-.9-1v-3.4l3-5.2c.3-.5.7-.8,1.1-.8h.2Z"/>
</svg>